<?xml version="1.0" encoding="UTF-8" standalone="no"?> <svg xmlns="http://www.w3.org/2000/svg" viewBox="0 0 64 64"><defs><style>.cls-1{fill:#35353d;}</style></defs><title>Asset 14</title><g id="Layer_2" data-name="Layer 2"><g id="Layer_1-2" data-name="Layer 1"><path class="cls-1" d="M1,34.11,38.35,63.44a2.67,2.67,0,0,0,4.31-2.11V50.08l17,13.36A2.68,2.68,0,0,0,64,61.33V2.67A2.69,2.69,0,0,0,62.5.27,2.54,2.54,0,0,0,61.33,0a2.7,2.7,0,0,0-1.65.56l-17,13.36V2.67A2.68,2.68,0,0,0,41.17.27,2.54,2.54,0,0,0,40,0a2.7,2.7,0,0,0-1.65.56L1,29.89a2.71,2.71,0,0,0,0,4.22ZM58.66,8.16V55.84l-16-12.56-5.33-4.19-9-7.09,9-7.09Zm-21.33,0v10l-15,11.78a2.69,2.69,0,0,0,0,4.22l15,11.78v10L7,32Z"/></g></g></svg>